<svg xmlns="http://www.w3.org/2000/svg" xmlns:xlink="http://www.w3.org/1999/xlink" version="1.1" width="1000" height="1000" viewBox="0 0 1000 1000" xml:space="preserve">
<desc>Created with Fabric.js 3.5.0</desc>
<defs>
</defs>
<rect x="0" y="0" width="100%" height="100%" fill="#ffffff"/>
<g transform="matrix(22.4618 0 0 22.4618 500.0004 500.0004)" id="156871">
<g style="" vector-effect="non-scaling-stroke">
		<g transform="matrix(1 0 0 1 0 0)">
<path style="stroke: none; stroke-width: 1; stroke-dasharray: none; stroke-linecap: butt; stroke-dashoffset: 0; stroke-linejoin: miter; stroke-miterlimit: 4; is-custom-font: none; font-file-url: none; fill: rgb(170,87,42); fill-rule: nonzero; opacity: 1;" transform=" translate(-16.5, -15.5)" d="M 4 3 h 25 v 25 H 4 z" stroke-linecap="round"/>
</g>
		<g transform="matrix(1 0 0 1 0 0)">
<path style="stroke: none; stroke-width: 1; stroke-dasharray: none; stroke-linecap: butt; stroke-dashoffset: 0; stroke-linejoin: miter; stroke-miterlimit: 4; is-custom-font: none; font-file-url: none; fill: rgb(255,211,0); fill-rule: nonzero; opacity: 1;" transform=" translate(-16.5, -15.5)" d="M 1 0 h 5 a 1 1 0 0 1 1 1 v 30 H 1 a 1 1 0 0 1 -1 -1 V 1 a 1 1 0 0 1 1 -1 z m 26 0 h 5 a 1 1 0 0 1 1 1 v 29 a 1 1 0 0 1 -1 1 h -6 V 1 a 1 1 0 0 1 1 -1 z" stroke-linecap="round"/>
</g>
		<g transform="matrix(1 0 0 1 0 7)">
<path style="stroke: none; stroke-width: 1; stroke-dasharray: none; stroke-linecap: butt; stroke-dashoffset: 0; stroke-linejoin: miter; stroke-miterlimit: 4; is-custom-font: none; font-file-url: none; fill: rgb(255,211,0); fill-rule: nonzero; opacity: 1;" transform=" translate(-16.5, -22.5)" d="M 4 27 h 25 v 4 H 4 z m 0 -13 h 25 v 6 H 4 z" stroke-linecap="round"/>
</g>
		<g transform="matrix(1 0 0 1 0 1.5)">
<path style="stroke: none; stroke-width: 1; stroke-dasharray: none; stroke-linecap: butt; stroke-dashoffset: 0; stroke-linejoin: miter; stroke-miterlimit: 4; is-custom-font: none; font-file-url: none; fill: rgb(255,211,0); fill-rule: nonzero; opacity: 1;" transform=" translate(-16.5, -17)" d="M 13 11 h 7 a 2 2 0 0 1 2 2 v 8 a 2 2 0 0 1 -2 2 h -7 a 2 2 0 0 1 -2 -2 v -8 a 2 2 0 0 1 2 -2 z" stroke-linecap="round"/>
</g>
		<g transform="matrix(1 0 0 1 0 3.74)">
<path style="stroke: none; stroke-width: 1; stroke-dasharray: none; stroke-linecap: butt; stroke-dashoffset: 0; stroke-linejoin: miter; stroke-miterlimit: 4; is-custom-font: none; font-file-url: none; fill: rgb(237,159,14); fill-rule: nonzero; opacity: 1;" transform=" translate(-16.5, -19.24)" d="M 15 17.48 h 3 l 0.638 2.247 A 1 1 0 0 1 17.676 21 h -2.352 a 1 1 0 0 1 -0.962 -1.273 L 15 17.48 z" stroke-linecap="round"/>
</g>
		<g transform="matrix(1 0 0 1 0 0)">
<path style="stroke: none; stroke-width: 1; stroke-dasharray: none; stroke-linecap: butt; stroke-dashoffset: 0; stroke-linejoin: miter; stroke-miterlimit: 4; is-custom-font: none; font-file-url: none; fill: rgb(237,159,14); fill-rule: nonzero; opacity: 1;" transform=" translate(-16.5, -15.5)" d="M 16.5 13 a 2.5 2.5 0 1 1 0 5 a 2.5 2.5 0 1 1 0 -5 z" stroke-linecap="round"/>
</g>
</g>
</g>
</svg>