<svg xmlns="http://www.w3.org/2000/svg" width="192" height="192" viewBox="-0.043 0.043 52.742 52.742"><path xmlns="http://www.w3.org/2000/svg" d="M26.284 52.785c14.541.024 26.39-11.787 26.414-26.328S40.912.067 26.371.043-.019 11.83-.043 26.371s11.787 26.39 26.328 26.414m.082-50.11c13.09.022 23.722 10.688 23.7 23.778s-10.689 23.722-23.779 23.7-23.721-10.688-23.7-23.778 10.689-23.722 23.779-23.7" fill="#6cc988"/><path xmlns="http://www.w3.org/2000/svg" fill-rule="evenodd" clip-rule="evenodd" d="M31.645 23.936a4.85 4.85 0 0 1-3.7-1.71c-.264 2.119-1.574 3.738-1.574 3.738s-1.31-1.619-1.573-3.738a4.86 4.86 0 0 1-3.701 1.71 4.868 4.868 0 0 1 0-9.737s3.922-.236 5.274.812v-.007c1.146-.877 4.185-.818 4.956-.788.105-.007.211-.016.318-.016a4.868 4.868 0 0 1 0 9.736m-7.538-7.586-.016-.017a4.05 4.05 0 0 0-1.584-1.068l-.07-.025q-.291-.102-.599-.16l-.06-.009a4 4 0 0 0-.652-.06l-.028-.002a4.059 4.059 0 1 0 3.564 6.003c.033-.061.059-.126.089-.189.007-1.096.046-2.062.28-2.742a4.05 4.05 0 0 0-.924-1.73m7.538-1.342c-.055 0-.109.006-.163.008a4.06 4.06 0 0 0-3.77 3.064c.234.681.274 1.646.28 2.742.016.033.028.069.045.101a4.06 4.06 0 1 0 3.608-5.915m-1.217 6.494a1.623 1.623 0 1 1 0-3.246 1.623 1.623 0 0 1 0 3.246m-8.114 0a1.623 1.623 0 1 1 0-3.246 1.623 1.623 0 0 1 0 3.246m13.388-10.955v4.459c-1.038-.991-2.469-1.616-4.057-1.665zm-18.662 0 4.058 2.794c-1.588.049-3.019.675-4.057 1.665zm.937 13.26c.169.111.35.205.53.298-.861-.444.841.639 2.591.639a5.6 5.6 0 0 0 2.085-.4c1.479 1.588 1.546 4.38.755 6.489-.726 1.936-1.799 3.807-2.711 5.222 2.459 1.977 5.145 3.277 5.145 3.277s2.712-1.312 5.181-3.305c-.899-1.409-1.949-3.262-2.663-5.181-.802-2.157-.712-5.03.858-6.592a5.6 5.6 0 0 0 2.304.491c.532 0 1.533-.214 1.533-.214l1.058-.43s.186-.086.274-.138c1.186 1.262 2.003 3.866 2.003 6.882 0 4.25-3.613 7.696-3.613 7.696s-.577-.731-1.347-1.889c-2.698 2.126-5.589 3.511-5.589 3.511s-2.868-1.374-5.555-3.485c-.769 1.143-1.342 1.862-1.342 1.862s-3.652-3.451-3.652-7.708c0-3.129.885-5.817 2.154-7.025" fill="#6cc988"/><g transform="translate(125 205)" fill="#6cc988"/></svg>