<svg xmlns="http://www.w3.org/2000/svg" width="192" height="192" viewBox="0 0 213 305">
  <g transform="matrix(4.109589041095891,0,0,4.109589041095891,-100.68493150684932,-54.589041095890416)" fill="#37CA6D">
    <path xmlns="http://www.w3.org/2000/svg" fill-rule="evenodd" clip-rule="evenodd" d="M63.5,47.5c-3.654,0-6.921-1.639-9.121-4.215C53.729,48.509,50.5,52.5,50.5,52.5  s-3.229-3.991-3.878-9.215C44.421,45.861,41.154,47.5,37.5,47.5c-6.627,0-12-5.373-12-12s5.373-12,12-12c0,0,9.667-0.583,13,2  c0-0.005,0-0.012,0-0.017c2.826-2.161,10.316-2.017,12.217-1.943c0.26-0.017,0.519-0.04,0.783-0.04c6.628,0,12,5.373,12,12  S70.128,47.5,63.5,47.5z M44.919,28.801c-0.013-0.014-0.026-0.028-0.039-0.042c-1.062-1.166-2.398-2.073-3.905-2.633  c-0.057-0.021-0.114-0.043-0.172-0.063c-0.478-0.167-0.97-0.301-1.477-0.395c-0.049-0.009-0.099-0.014-0.147-0.022  c-0.523-0.089-1.06-0.144-1.608-0.148c-0.023,0-0.047-0.004-0.07-0.004c-5.526,0-10.006,4.48-10.006,10.007  S31.974,45.506,37.5,45.506c3.791,0,7.088-2.108,8.786-5.215l0,0c0.082-0.15,0.145-0.311,0.219-0.466  c0.017-2.702,0.114-5.082,0.691-6.759C46.792,31.454,45.996,29.997,44.919,28.801z M63.5,25.493c-0.136,0-0.268,0.015-0.402,0.021  c-4.505,0.18-8.235,3.333-9.293,7.552c0.576,1.678,0.675,4.057,0.691,6.758c0.039,0.082,0.069,0.169,0.111,0.25l0,0  c1.661,3.224,5.016,5.433,8.893,5.433c5.526,0,10.007-4.48,10.007-10.006S69.026,25.493,63.5,25.493z M60.5,41.5  c-2.209,0-4-1.791-4-4c0-2.209,1.791-4,4-4s4,1.791,4,4C64.5,39.709,62.709,41.5,60.5,41.5z M40.5,41.5c-2.209,0-4-1.791-4-4  c0-2.209,1.791-4,4-4s4,1.791,4,4C44.5,39.709,42.709,41.5,40.5,41.5z M73.5,14.5v10.992c-2.559-2.442-6.086-3.984-10.001-4.105  L73.5,14.5z M27.5,14.5l10.001,6.887c-3.915,0.121-7.442,1.663-10.001,4.105V14.5z M29.809,47.185  c0.416,0.274,0.861,0.505,1.306,0.734c-2.122-1.094,2.073,1.575,6.386,1.575c1.816,0,3.547-0.357,5.14-0.987  c3.645,3.913,3.81,10.795,1.86,15.994c-1.79,4.773-4.434,9.383-6.683,12.872c6.061,4.873,12.683,8.077,12.683,8.077  s6.686-3.234,12.77-8.147c-2.215-3.474-4.805-8.041-6.563-12.771c-1.977-5.317-1.755-12.4,2.115-16.249  c1.736,0.773,3.655,1.211,5.679,1.211c1.312,0,3.778-0.527,3.778-0.527l2.608-1.059c0,0,0.458-0.213,0.675-0.34  c2.925,3.11,4.938,9.528,4.938,16.964c0,10.477-8.907,18.969-8.907,18.969s-1.422-1.801-3.321-4.655  C57.628,84.086,50.5,87.5,50.5,87.5s-7.07-3.386-13.691-8.591C34.913,81.728,33.5,83.5,33.5,83.5s-9-8.507-9-19  C24.5,56.787,26.681,50.162,29.809,47.185z"></path>
  </g>
</svg>