<svg viewBox="110.568 129.934 231.568 289.414" xmlns="http://www.w3.org/2000/svg">
  <defs></defs>
  <g transform="matrix(4.109589, 0, 0, 4.109589, 18.222548, 54.850259)" fill="rgb(245, 158, 11)">
    <path xmlns="http://www.w3.org/2000/svg" fill-rule="evenodd" clip-rule="evenodd" d="M 63.784 47.642 C 60.13 47.642 56.863 46.003 54.663 43.427 C 54.013 48.651 50.784 52.642 50.784 52.642 C 50.784 52.642 47.555 48.651 46.906 43.427 C 44.705 46.003 41.438 47.642 37.784 47.642 C 31.157 47.642 25.784 42.269 25.784 35.642 C 25.784 29.015 31.157 23.642 37.784 23.642 C 37.784 23.642 47.451 23.059 50.784 25.642 C 50.784 25.637 50.784 25.63 50.784 25.625 C 53.61 23.464 61.1 23.608 63.001 23.682 C 63.261 23.665 63.52 23.642 63.784 23.642 C 70.412 23.642 75.784 29.015 75.784 35.642 C 75.784 42.269 70.412 47.642 63.784 47.642 Z M 45.203 28.943 C 45.19 28.929 45.177 28.915 45.164 28.901 C 44.102 27.735 42.766 26.828 41.259 26.268 C 41.202 26.247 41.145 26.225 41.087 26.205 C 40.609 26.038 40.117 25.904 39.61 25.81 C 39.561 25.801 39.511 25.796 39.463 25.788 C 38.94 25.699 38.403 25.644 37.855 25.64 C 37.832 25.64 37.808 25.636 37.785 25.636 C 32.259 25.636 27.779 30.116 27.779 35.643 C 27.779 41.17 32.258 45.648 37.784 45.648 C 41.575 45.648 44.872 43.54 46.57 40.433 C 46.652 40.283 46.715 40.122 46.789 39.967 C 46.806 37.265 46.903 34.885 47.48 33.208 C 47.076 31.596 46.28 30.139 45.203 28.943 Z M 63.784 25.635 C 63.648 25.635 63.516 25.65 63.382 25.656 C 58.877 25.836 55.147 28.989 54.089 33.208 C 54.665 34.886 54.764 37.265 54.78 39.966 C 54.819 40.048 54.849 40.135 54.891 40.216 C 56.552 43.44 59.907 45.649 63.784 45.649 C 69.31 45.649 73.791 41.169 73.791 35.643 C 73.791 30.117 69.31 25.635 63.784 25.635 Z M 60.784 41.642 C 58.575 41.642 56.784 39.851 56.784 37.642 C 56.784 35.433 58.575 33.642 60.784 33.642 C 62.993 33.642 64.784 35.433 64.784 37.642 C 64.784 39.851 62.993 41.642 60.784 41.642 Z M 40.784 41.642 C 38.575 41.642 36.784 39.851 36.784 37.642 C 36.784 35.433 38.575 33.642 40.784 33.642 C 42.993 33.642 44.784 35.433 44.784 37.642 C 44.784 39.851 42.993 41.642 40.784 41.642 Z M 76.843 21.244 L 73.784 25.634 C 71.225 23.192 67.698 21.65 63.783 21.529 L 76.843 21.244 Z M 25.266 21.748 L 37.785 21.529 C 33.87 21.65 30.343 23.192 27.784 25.634 L 25.266 21.748 Z M 30.093 47.327 C 30.509 47.601 30.954 47.832 31.399 48.061 C 29.277 46.967 33.472 49.636 37.785 49.636 C 39.601 49.636 41.332 49.279 42.925 48.649 C 46.57 52.562 46.735 59.444 44.785 64.643 C 42.995 69.416 40.351 74.026 38.102 77.515 C 44.163 82.388 50.785 85.592 50.785 85.592 C 50.785 85.592 57.471 82.358 63.555 77.445 C 61.34 73.971 58.75 69.404 56.992 64.674 C 55.015 59.357 55.237 52.274 59.107 48.425 C 60.843 49.198 62.762 49.636 64.786 49.636 C 66.098 49.636 68.564 49.109 68.564 49.109 L 71.172 48.05 C 71.172 48.05 71.63 47.837 71.847 47.71 C 74.772 50.82 76.785 57.238 76.785 64.674 C 76.785 75.151 67.878 83.643 67.878 83.643 C 67.878 83.643 66.456 81.842 64.557 78.988 C 57.912 84.228 50.784 87.642 50.784 87.642 C 50.784 87.642 43.714 84.256 37.093 79.051 C 35.197 81.87 33.784 83.642 33.784 83.642 C 33.784 83.642 24.784 75.135 24.784 64.642 C 24.784 56.929 26.965 50.304 30.093 47.327 Z" style="fill: rgb(245, 158, 11);"></path>
  </g>
</svg>