<svg xmlns="http://www.w3.org/2000/svg" width="56" height="56" fill="none">
    <circle cx="26.206" cy="28.703" r="15.444" fill="#ECFFDE" stroke="#58CC02" stroke-width="3.861"/>
    <circle cx="26.206" cy="28.703" r="7.722" fill="#ECFFDE" stroke="#58CC02" stroke-width="3.861"/>
    <path fill-rule="evenodd" clip-rule="evenodd" d="m42.812 14.509-7.043 5.432-1.045-5.288c-.023-.32.025-.696.306-.913l5.494-4.237c.423-.325.923-.26 1.25.165.11.141.164.212.148.337l.89 4.504ZM43.903 15.924l-7.043 5.432 4.848 2.354c.305.104.68.153.961-.065l5.494-4.236c.423-.326.486-.826.159-1.25-.11-.142-.164-.213-.289-.23l-4.13-2.005Z" fill="#58A700"/>
    <rect x="24.63" y="28.33" width="23.343" height="2.575" rx="1.288" transform="rotate(-37.638 24.63 28.33)" fill="#478700"/>
</svg>
