<svg xmlns="http://www.w3.org/2000/svg" width="56" height="56" fill="none">
    <path fill="#1CB0F6" d="M24.64 11.395h6.72v6.733h-6.72z"/>
    <path fill-rule="evenodd" clip-rule="evenodd" d="M22.4 8.514c0-.579.469-1.047 1.047-1.047h9.105c.579 0 1.048.468 1.048 1.047v2.955c0 .579-.47 1.048-1.048 1.048h-9.105a1.047 1.047 0 0 1-1.047-1.048V8.514Z" fill="#1CB0F6"/>
    <path d="M42.967 31.594c0 8.288-6.705 15-14.967 15-8.263 0-14.967-6.712-14.967-15s6.704-15 14.967-15c8.262 0 14.967 6.712 14.967 15Z" fill="#DDF4FF" stroke="#1CB0F6" stroke-width="3.666"/>
    <g opacity=".01" fill-rule="evenodd" clip-rule="evenodd" fill="#1CB0F6">
        <path d="M26.88 21.98c0-.578.47-1.047 1.048-1.047h.145c.579 0 1.048.47 1.048 1.048v1.833c0 .578-.47 1.047-1.048 1.047h-.145a1.047 1.047 0 0 1-1.047-1.047V21.98ZM26.881 39.376c0-.579.469-1.048 1.047-1.048h.146c.578 0 1.047.47 1.047 1.048v1.833c0 .578-.469 1.047-1.047 1.047h-.146a1.047 1.047 0 0 1-1.047-1.047v-1.833ZM18.408 32.717a1.047 1.047 0 0 1-1.048-1.047v-.15c0-.578.47-1.047 1.048-1.047h1.825c.578 0 1.047.469 1.047 1.047v.15c0 .578-.469 1.047-1.047 1.047h-1.825ZM35.767 32.717a1.047 1.047 0 0 1-1.047-1.047v-.15c0-.578.469-1.047 1.047-1.047h1.826c.578 0 1.047.469 1.047 1.047v.15c0 .578-.469 1.047-1.047 1.047h-1.826Z"/>
    </g>
    <path fill-rule="evenodd" clip-rule="evenodd" d="m27.73 31.568 7.478 7.492c4.155-4.163 4.155-10.913 0-15.077a10.593 10.593 0 0 0-7.185-3.117" fill="#84D8FF"/>
    <path fill-rule="evenodd" clip-rule="evenodd" d="M28 34.4a2.803 2.803 0 0 1-2.8-2.806A2.803 2.803 0 0 1 28 28.79c1.546 0 2.8 1.256 2.8 2.805A2.803 2.803 0 0 1 28 34.4Z" fill="#1CB0F6"/>
    <path fill-rule="evenodd" clip-rule="evenodd" d="M35.339 37.642c.408.409.408 1.07 0 1.48l-.104.104c-.41.41-1.074.41-1.483 0L28.5 33.964a1.048 1.048 0 0 1 0-1.48l.104-.105c.41-.41 1.074-.41 1.483 0l5.252 5.263Z" fill="#1CB0F6" stroke="#1CB0F6" stroke-width=".459"/>
    <path opacity=".75" d="M20.082 28.182a8.403 8.403 0 0 0-.605 3.45 8.393 8.393 0 0 0 2.328 5.528" stroke="#fff" stroke-width="3.142" stroke-linecap="round"/>
</svg>
