<?xml version="1.0" encoding="UTF-8"?>
<svg xmlns="http://www.w3.org/2000/svg" xmlns:xlink="http://www.w3.org/1999/xlink" width="200px" height="200px" viewBox="0 0 200 200" version="1.1">
<defs>
<filter id="alpha" filterUnits="objectBoundingBox" x="0%" y="0%" width="100%" height="100%">
  <feColorMatrix type="matrix" in="SourceGraphic" values="0 0 0 0 1 0 0 0 0 1 0 0 0 0 1 0 0 0 1 0"/>
</filter>
<mask id="mask0">
  <g filter="url(#alpha)">
<rect x="0" y="0" width="200" height="200" style="fill:rgb(0%,0%,0%);fill-opacity:0.301961;stroke:none;"/>
  </g>
</mask>
<clipPath id="clip1">
  <rect x="0" y="0" width="200" height="200"/>
</clipPath>
<g id="surface5" clip-path="url(#clip1)">
<path style=" stroke:none;fill-rule:nonzero;fill:rgb(100%,29.411765%,29.411765%);fill-opacity:1;" d="M 21.53125 72.441406 L 23.640625 68.808594 C 24.832031 66.753906 27.460938 66.050781 29.519531 67.234375 L 33.191406 69.34375 C 34.1875 69.914062 34.914062 70.859375 35.210938 71.96875 C 35.507812 73.078125 35.351562 74.257812 34.773438 75.25 L 32.667969 78.878906 C 31.472656 80.933594 28.847656 81.636719 26.789062 80.457031 L 23.113281 78.347656 C 22.121094 77.777344 21.394531 76.832031 21.097656 75.722656 C 20.796875 74.613281 20.957031 73.433594 21.53125 72.441406 Z M 147.207031 38.773438 L 142.335938 30.390625 C 141.144531 28.335938 138.519531 27.632812 136.464844 28.816406 L 128.007812 33.667969 C 127.011719 34.242188 126.285156 35.183594 125.988281 36.292969 C 125.691406 37.402344 125.847656 38.582031 126.425781 39.574219 L 131.292969 47.960938 C 132.484375 50.011719 135.109375 50.714844 137.167969 49.535156 L 145.625 44.679688 C 146.621094 44.109375 147.347656 43.164062 147.644531 42.054688 C 147.941406 40.945312 147.785156 39.765625 147.207031 38.773438 Z M 179.476562 107.511719 L 178.289062 105.464844 C 177.097656 103.414062 174.472656 102.710938 172.414062 103.890625 L 170.332031 105.082031 C 169.335938 105.65625 168.609375 106.597656 168.3125 107.707031 C 168.015625 108.816406 168.171875 110 168.75 110.992188 L 169.9375 113.039062 C 171.128906 115.089844 173.757812 115.796875 175.816406 114.613281 L 177.894531 113.417969 C 178.890625 112.847656 179.617188 111.902344 179.914062 110.796875 C 180.210938 109.6875 180.054688 108.503906 179.476562 107.511719 Z M 179.476562 107.511719 "/>
</g>
</defs>
<g id="surface1">
<path style=" stroke:none;fill-rule:nonzero;fill:rgb(100%,73.72549%,0%);fill-opacity:1;" d="M 91.09375 46.804688 L 111.398438 46.804688 C 114.429688 46.804688 116.886719 49.261719 116.886719 52.292969 L 116.886719 59.609375 C 116.886719 62.640625 114.429688 65.097656 111.398438 65.097656 L 91.09375 65.097656 C 88.0625 65.097656 85.601562 62.640625 85.601562 59.609375 L 85.601562 52.292969 C 85.601562 49.261719 88.0625 46.804688 91.09375 46.804688 Z M 91.09375 46.804688 "/>
<path style=" stroke:none;fill-rule:nonzero;fill:rgb(100%,73.72549%,0%);fill-opacity:1;" d="M 46.925781 54.121094 L 153.722656 54.121094 C 156.753906 54.121094 159.210938 56.578125 159.210938 59.609375 L 159.210938 66.925781 C 159.210938 69.957031 156.753906 72.417969 153.722656 72.417969 L 46.925781 72.417969 C 43.894531 72.417969 41.4375 69.957031 41.4375 66.925781 L 41.4375 59.609375 C 41.4375 56.578125 43.894531 54.121094 46.925781 54.121094 Z M 46.925781 54.121094 "/>
<path style="fill-rule:nonzero;fill:rgb(52.54902%,27.45098%,14.117647%);fill-opacity:1;stroke-width:1;stroke-linecap:butt;stroke-linejoin:miter;stroke:rgb(66.666667%,34.117647%,16.470588%);stroke-opacity:1;stroke-miterlimit:4;" d="M 16.561172 24.765 C 15.8225 24.765 15.224297 25.365625 15.224297 26.101875 L 15.224297 60.049297 C 15.224297 60.787969 15.8225 61.386172 16.561172 61.386172 L 82.700156 61.386172 C 83.438828 61.386172 84.037031 60.787969 84.037031 60.049297 L 84.037031 26.101875 C 84.037031 25.365625 83.438828 24.765 82.700156 24.765 Z M 16.561172 24.765 " transform="matrix(1.612903,0,0,1.612903,19.354839,25.806452)"/>
<path style=" stroke:none;fill-rule:nonzero;fill:rgb(89.019608%,20.784314%,20.784314%);fill-opacity:1;" d="M 107.75 77.410156 L 125.105469 72.558594 C 127.417969 71.914062 129.894531 72.578125 131.574219 74.292969 L 144.175781 87.171875 C 145.804688 88.832031 146.433594 91.226562 145.832031 93.472656 L 140.105469 114.835938 C 139.503906 117.082031 137.761719 118.839844 135.523438 119.464844 L 118.167969 124.316406 C 115.859375 124.960938 113.378906 124.296875 111.703125 122.582031 L 99.097656 109.703125 C 97.472656 108.042969 96.84375 105.648438 97.445312 103.40625 L 103.171875 82.039062 C 103.773438 79.796875 105.515625 78.035156 107.75 77.410156 Z M 107.75 77.410156 "/>
<path style=" stroke:none;fill-rule:nonzero;fill:rgb(100%,29.411765%,29.411765%);fill-opacity:1;" d="M 98.304688 64.566406 L 81.230469 58.816406 C 78.957031 58.050781 76.445312 58.585938 74.679688 60.207031 L 61.417969 72.40625 C 59.707031 73.980469 58.957031 76.339844 59.4375 78.613281 L 64.035156 100.25 C 64.519531 102.523438 66.167969 104.371094 68.371094 105.113281 L 85.445312 110.863281 C 87.71875 111.628906 90.230469 111.097656 91.996094 109.472656 L 105.257812 97.269531 C 106.96875 95.699219 107.71875 93.339844 107.238281 91.066406 L 102.640625 69.429688 C 102.15625 67.15625 100.507812 65.308594 98.304688 64.566406 Z M 98.304688 64.566406 "/>
<path style=" stroke:none;fill-rule:nonzero;fill:rgb(100%,65.098039%,65.098039%);fill-opacity:1;" d="M 78.980469 65.527344 L 81.839844 78.984375 C 81.988281 79.699219 81.757812 80.4375 81.230469 80.941406 C 80.699219 81.441406 79.949219 81.632812 79.242188 81.445312 L 65.84375 77.835938 C 65.109375 77.636719 64.539062 77.054688 64.355469 76.316406 C 64.171875 75.582031 64.402344 74.800781 64.957031 74.28125 L 75.496094 64.433594 C 76.050781 63.917969 76.835938 63.738281 77.558594 63.964844 C 78.277344 64.191406 78.820312 64.789062 78.980469 65.527344 Z M 78.980469 65.527344 "/>
<path style=" stroke:none;fill-rule:nonzero;fill:rgb(89.019608%,20.784314%,20.784314%);fill-opacity:1;" d="M 104.957031 89.785156 L 86.96875 90.847656 C 84.574219 90.992188 82.445312 92.425781 81.417969 94.59375 L 73.691406 110.875 C 72.695312 112.972656 72.878906 115.441406 74.179688 117.367188 L 86.550781 135.707031 C 87.847656 137.632812 90.066406 138.730469 92.386719 138.59375 L 110.375 137.527344 C 112.769531 137.386719 114.898438 135.953125 115.925781 133.785156 L 123.652344 117.503906 C 124.648438 115.402344 124.460938 112.933594 123.164062 111.007812 L 110.792969 92.671875 C 109.496094 90.746094 107.273438 89.648438 104.953125 89.785156 Z M 104.957031 89.785156 "/>
<path style=" stroke:none;fill-rule:nonzero;fill:rgb(100%,29.411765%,29.411765%);fill-opacity:1;" d="M 122.695312 84.296875 L 140.683594 85.359375 C 143.078125 85.503906 145.203125 86.9375 146.230469 89.101562 L 153.957031 105.386719 C 154.953125 107.484375 154.769531 109.953125 153.46875 111.878906 L 141.101562 130.21875 C 139.800781 132.144531 137.582031 133.242188 135.261719 133.105469 L 117.273438 132.039062 C 114.878906 131.898438 112.75 130.460938 111.722656 128.296875 L 103.996094 112.015625 C 103 109.914062 103.1875 107.445312 104.484375 105.519531 L 116.855469 87.183594 C 118.15625 85.257812 120.375 84.160156 122.695312 84.296875 Z M 122.695312 84.296875 "/>
<path style=" stroke:none;fill-rule:nonzero;fill:rgb(100%,65.098039%,65.098039%);fill-opacity:1;" d="M 139.746094 92.984375 L 132.050781 104.390625 C 131.644531 104.992188 130.949219 105.34375 130.222656 105.308594 C 129.492188 105.277344 128.832031 104.867188 128.480469 104.230469 L 121.769531 92.085938 C 121.402344 91.417969 121.421875 90.605469 121.824219 89.960938 C 122.230469 89.316406 122.949219 88.941406 123.710938 88.980469 L 138.113281 89.71875 C 138.867188 89.757812 139.542969 90.199219 139.882812 90.875 C 140.21875 91.550781 140.167969 92.355469 139.746094 92.984375 Z M 139.746094 92.984375 "/>
<path style=" stroke:none;fill-rule:nonzero;fill:rgb(100%,29.411765%,29.411765%);fill-opacity:1;" d="M 75.773438 85.578125 L 57.949219 86.570312 C 55.535156 86.707031 53.390625 88.152344 52.363281 90.335938 L 44.769531 106.492188 C 43.78125 108.589844 43.972656 111.046875 45.265625 112.96875 L 57.652344 131.332031 C 58.949219 133.25 61.15625 134.347656 63.46875 134.21875 L 81.292969 133.226562 C 83.707031 133.089844 85.847656 131.644531 86.878906 129.460938 L 94.472656 113.304688 C 95.460938 111.207031 95.269531 108.75 93.976562 106.828125 L 81.589844 88.464844 C 80.292969 86.546875 78.085938 85.449219 75.773438 85.578125 Z M 75.773438 85.578125 "/>
<path style=" stroke:none;fill-rule:nonzero;fill:rgb(100%,65.098039%,65.098039%);fill-opacity:1;" d="M 54.136719 93.226562 L 62.882812 108.128906 C 63.414062 109.023438 64.519531 109.394531 65.484375 109 C 66.445312 108.601562 66.972656 107.5625 66.722656 106.554688 L 62.925781 91.515625 C 62.683594 90.566406 61.816406 89.910156 60.835938 89.933594 L 55.882812 90.070312 C 55.144531 90.09375 54.46875 90.503906 54.109375 91.152344 C 53.75 91.800781 53.761719 92.589844 54.136719 93.226562 Z M 54.136719 93.226562 "/>
<use xlink:href="#surface5" mask="url(#mask0)"/>
<path style=" stroke:none;fill-rule:nonzero;fill:rgb(66.666667%,34.117647%,16.470588%);fill-opacity:1;" d="M 41.4375 107.242188 L 157.371094 107.242188 L 157.371094 174.933594 L 41.4375 174.933594 Z M 41.4375 107.242188 "/>
<path style="fill:none;stroke-width:1;stroke-linecap:butt;stroke-linejoin:miter;stroke:rgb(56.470588%,28.235294%,12.941176%);stroke-opacity:1;stroke-miterlimit:4;" d="M 21.206328 78.281172 L 73.489766 78.281172 " transform="matrix(1.612903,0,0,1.612903,19.354839,25.806452)"/>
<path style=" stroke:none;fill-rule:nonzero;fill:rgb(100%,73.72549%,0%);fill-opacity:1;" d="M 54.320312 162.128906 L 142.648438 162.128906 L 142.648438 174.933594 L 54.320312 174.933594 Z M 54.320312 162.128906 "/>
<path style=" stroke:none;fill-rule:nonzero;fill:rgb(100%,82.745098%,0%);fill-opacity:1;" d="M 59.066406 162.128906 L 139.742188 162.128906 L 126.859375 174.933594 L 54.320312 174.933594 L 54.320312 166.847656 Z M 59.066406 162.128906 "/>
<path style="fill:none;stroke-width:1;stroke-linecap:butt;stroke-linejoin:miter;stroke:rgb(56.470588%,28.235294%,12.941176%);stroke-opacity:1;stroke-miterlimit:4;" d="M 21.206328 62.400937 L 73.489766 62.400937 " transform="matrix(1.612903,0,0,1.612903,19.354839,25.806452)"/>
<path style=" stroke:none;fill-rule:nonzero;fill:rgb(100%,73.72549%,0%);fill-opacity:1;" d="M 40.230469 107.242188 L 57.367188 107.242188 C 59.75 107.242188 61.679688 109.171875 61.679688 111.554688 L 61.679688 170.621094 C 61.679688 173.003906 59.75 174.933594 57.367188 174.933594 L 40.230469 174.933594 C 37.847656 174.933594 35.917969 173.003906 35.917969 170.621094 L 35.917969 111.554688 C 35.917969 109.171875 37.847656 107.242188 40.230469 107.242188 Z M 40.230469 107.242188 "/>
<path style=" stroke:none;fill-rule:nonzero;fill:rgb(100%,82.745098%,0%);fill-opacity:1;" d="M 61.679688 111.734375 L 35.917969 137.347656 L 35.917969 111.554688 C 35.917969 109.171875 37.847656 107.242188 40.230469 107.242188 L 57.367188 107.242188 C 59.75 107.242188 61.679688 109.171875 61.679688 111.554688 Z M 61.679688 152.753906 L 61.679688 170.621094 C 61.679688 173.003906 59.75 174.933594 57.367188 174.933594 L 40.230469 174.933594 C 39.964844 174.933594 39.703125 174.910156 39.441406 174.859375 Z M 61.679688 152.753906 "/>
<path style=" stroke:none;fill-rule:nonzero;fill:rgb(100%,73.72549%,0%);fill-opacity:1;" d="M 141.441406 107.242188 L 158.578125 107.242188 C 160.960938 107.242188 162.890625 109.171875 162.890625 111.554688 L 162.890625 170.621094 C 162.890625 173.003906 160.960938 174.933594 158.578125 174.933594 L 141.441406 174.933594 C 139.058594 174.933594 137.128906 173.003906 137.128906 170.621094 L 137.128906 111.554688 C 137.128906 109.171875 139.058594 107.242188 141.441406 107.242188 Z M 141.441406 107.242188 "/>
<path style=" stroke:none;fill-rule:nonzero;fill:rgb(100%,82.745098%,0%);fill-opacity:1;" d="M 162.890625 139.113281 L 137.128906 164.726562 L 137.128906 111.554688 C 137.128906 109.171875 139.058594 107.242188 141.441406 107.242188 L 158.578125 107.242188 C 160.960938 107.242188 162.890625 109.171875 162.890625 111.554688 Z M 162.890625 139.113281 "/>
<path style=" stroke:none;fill-rule:nonzero;fill:rgb(100%,73.72549%,0%);fill-opacity:1;" d="M 86.234375 101.753906 L 112.574219 101.753906 C 114.957031 101.753906 116.886719 103.6875 116.886719 106.066406 L 116.886719 139.519531 C 116.886719 141.902344 114.957031 143.832031 112.574219 143.832031 L 86.234375 143.832031 C 83.855469 143.832031 81.921875 141.902344 81.921875 139.519531 L 81.921875 106.066406 C 81.921875 103.6875 83.855469 101.753906 86.234375 101.753906 Z M 86.234375 101.753906 "/>
<path style=" stroke:none;fill-rule:nonzero;fill:rgb(85.882353%,52.156863%,0%);fill-opacity:1;" d="M 107.683594 117.609375 C 107.683594 112.894531 103.976562 109.074219 99.402344 109.074219 C 94.828125 109.074219 91.121094 112.894531 91.121094 117.609375 C 91.121094 122.324219 94.828125 126.148438 99.402344 126.148438 C 103.976562 126.148438 107.683594 122.324219 107.683594 117.609375 Z M 107.683594 117.609375 "/>
<path style=" stroke:none;fill-rule:nonzero;fill:rgb(85.882353%,52.156863%,0%);fill-opacity:1;" d="M 103.570312 122.660156 L 106.351562 130.546875 C 106.6875 131.496094 106.542969 132.550781 105.960938 133.375 C 105.378906 134.195312 104.433594 134.683594 103.425781 134.683594 L 95.226562 134.683594 C 94.21875 134.683594 93.273438 134.195312 92.691406 133.375 C 92.109375 132.550781 91.964844 131.5 92.296875 130.546875 L 95.082031 122.660156 C 95.71875 120.863281 97.417969 119.660156 99.324219 119.660156 C 101.234375 119.660156 102.933594 120.863281 103.570312 122.660156 Z M 103.570312 122.660156 "/>
<path style=" stroke:none;fill-rule:nonzero;fill:rgb(97.254902%,63.529412%,0.392157%);fill-opacity:1;" d="M 54.316406 119.132812 C 54.316406 116.609375 52.257812 114.558594 49.71875 114.558594 C 47.175781 114.558594 45.117188 116.609375 45.117188 119.132812 C 45.117188 121.660156 47.175781 123.707031 49.71875 123.707031 C 52.257812 123.707031 54.316406 121.660156 54.316406 119.132812 Z M 54.316406 119.132812 "/>
<path style=" stroke:none;fill-rule:nonzero;fill:rgb(97.254902%,63.529412%,0.392157%);fill-opacity:1;" d="M 54.316406 161.214844 C 54.316406 158.6875 52.257812 156.640625 49.71875 156.640625 C 47.175781 156.640625 45.117188 158.6875 45.117188 161.214844 C 45.117188 163.738281 47.175781 165.785156 49.71875 165.785156 C 52.257812 165.785156 54.316406 163.738281 54.316406 161.214844 Z M 54.316406 161.214844 "/>
<path style=" stroke:none;fill-rule:nonzero;fill:rgb(97.254902%,63.529412%,0.392157%);fill-opacity:1;" d="M 155.53125 161.214844 C 155.53125 158.6875 153.472656 156.640625 150.929688 156.640625 C 148.390625 156.640625 146.332031 158.6875 146.332031 161.214844 C 146.332031 163.738281 148.390625 165.785156 150.929688 165.785156 C 153.472656 165.785156 155.53125 163.738281 155.53125 161.214844 Z M 155.53125 161.214844 "/>
<path style=" stroke:none;fill-rule:nonzero;fill:rgb(97.254902%,63.529412%,0.392157%);fill-opacity:1;" d="M 155.53125 119.132812 C 155.53125 116.609375 153.472656 114.558594 150.929688 114.558594 C 148.390625 114.558594 146.332031 116.609375 146.332031 119.132812 C 146.332031 121.660156 148.390625 123.707031 150.929688 123.707031 C 153.472656 123.707031 155.53125 121.660156 155.53125 119.132812 Z M 155.53125 119.132812 "/>
</g>
</svg>
