<?xml version="1.0" encoding="UTF-8"?>
<svg xmlns="http://www.w3.org/2000/svg" xmlns:xlink="http://www.w3.org/1999/xlink" version="1.1" width="512px" height="512px" style="shape-rendering:geometricPrecision; text-rendering:geometricPrecision; image-rendering:optimizeQuality; fill-rule:evenodd; clip-rule:evenodd">
  <g>
    <path style="opacity:0.994" fill="#fc8469" d="M 233.5,-0.5 C 248.167,-0.5 262.833,-0.5 277.5,-0.5C 377.805,11.9821 449.305,63.9821 492,155.5C 502.297,180.687 508.797,206.687 511.5,233.5C 511.5,248.167 511.5,262.833 511.5,277.5C 507.53,317.909 495.03,355.576 474,390.5C 468.209,399.772 461.709,408.438 454.5,416.5C 429.316,385.21 397.65,362.71 359.5,349C 349.067,344.945 338.4,341.778 327.5,339.5C 326.937,328.759 322.27,320.426 313.5,314.5C 312.656,309.231 311.989,303.897 311.5,298.5C 320.799,284.902 328.799,270.569 335.5,255.5C 343.984,252.187 350.484,246.521 355,238.5C 360.494,229.191 362.494,219.191 361,208.5C 359.155,203.483 355.655,200.483 350.5,199.5C 356.997,177.836 362.164,155.836 366,133.5C 366.667,123.5 366.667,113.5 366,103.5C 360.203,74.1575 342.37,61.9909 312.5,67C 308.238,67.9395 304.072,69.1062 300,70.5C 298.648,52.8073 289.148,42.3073 271.5,39C 221.572,32.0476 183.739,50.2142 158,93.5C 152.101,105.532 147.601,118.032 144.5,131C 148.472,128.363 151.972,124.863 155,120.5C 148.57,147.266 149.403,173.932 157.5,200.5C 153.824,202.011 151.324,204.677 150,208.5C 148.175,227.013 154.675,241.847 169.5,253C 171.407,254.122 173.407,254.955 175.5,255.5C 182.23,270.636 190.23,284.969 199.5,298.5C 199.011,303.897 198.344,309.231 197.5,314.5C 188.941,320.127 184.274,328.127 183.5,338.5C 139.991,349.164 102.157,369.831 70,400.5C 65.2597,405.731 60.7597,411.064 56.5,416.5C 33.5626,389.301 17.396,358.301 8,323.5C 4.1719,308.204 1.33856,292.87 -0.5,277.5C -0.5,262.833 -0.5,248.167 -0.5,233.5C 11.9821,133.195 63.9821,61.6947 155.5,19C 180.687,8.70332 206.687,2.20332 233.5,-0.5 Z"></path>
  </g>
  <g>
    <path style="opacity:1" fill="#334a5e" d="M 350.5,199.5 C 346.744,218.526 341.744,237.192 335.5,255.5C 328.799,270.569 320.799,284.902 311.5,298.5C 274.167,342.5 236.833,342.5 199.5,298.5C 190.23,284.969 182.23,270.636 175.5,255.5C 168.701,237.438 162.701,219.104 157.5,200.5C 149.403,173.932 148.57,147.266 155,120.5C 151.972,124.863 148.472,128.363 144.5,131C 147.601,118.032 152.101,105.532 158,93.5C 183.739,50.2142 221.572,32.0476 271.5,39C 289.148,42.3073 298.648,52.8073 300,70.5C 304.072,69.1062 308.238,67.9395 312.5,67C 342.37,61.9909 360.203,74.1575 366,103.5C 366.667,113.5 366.667,123.5 366,133.5C 362.164,155.836 356.997,177.836 350.5,199.5 Z"></path>
  </g>
  <g>
    <path style="opacity:1" fill="#fefefe" d="M 237.5,109.5 C 254.864,109.67 272.198,110.504 289.5,112C 319.228,114.726 336.395,130.893 341,160.5C 344.024,188.953 340.691,216.62 331,243.5C 323.235,260.718 311.902,275.052 297,286.5C 294.534,280.268 292.367,273.934 290.5,267.5C 267.167,266.167 243.833,266.167 220.5,267.5C 218.436,274.192 216.269,280.859 214,287.5C 177.873,258.456 165.206,221.123 176,175.5C 181.354,138.969 201.854,116.969 237.5,109.5 Z"></path>
  </g>
  <g>
    <path style="opacity:1" fill="#fefcfb" d="M 350.5,199.5 C 355.655,200.483 359.155,203.483 361,208.5C 362.494,219.191 360.494,229.191 355,238.5C 350.484,246.521 343.984,252.187 335.5,255.5C 341.744,237.192 346.744,218.526 350.5,199.5 Z"></path>
  </g>
  <g>
    <path style="opacity:1" fill="#fdfbfb" d="M 157.5,200.5 C 162.701,219.104 168.701,237.438 175.5,255.5C 173.407,254.955 171.407,254.122 169.5,253C 154.675,241.847 148.175,227.013 150,208.5C 151.324,204.677 153.824,202.011 157.5,200.5 Z"></path>
  </g>
  <g>
    <path style="opacity:1" fill="#f3f4f5" d="M 227.5,281.5 C 245.995,280.338 264.662,280.171 283.5,281C 271.585,292.984 257.585,296.317 241.5,291C 236.285,288.565 231.618,285.399 227.5,281.5 Z"></path>
  </g>
  <g>
    <path style="opacity:1" fill="#fdfdfd" d="M 199.5,298.5 C 236.833,342.5 274.167,342.5 311.5,298.5C 311.989,303.897 312.656,309.231 313.5,314.5C 311.207,326.586 305.207,336.419 295.5,344C 283.486,352.502 270.819,359.669 257.5,365.5C 256.5,365.5 255.5,365.5 254.5,365.5C 240.16,359.829 226.827,352.329 214.5,343C 205.368,335.568 199.701,326.068 197.5,314.5C 198.344,309.231 199.011,303.897 199.5,298.5 Z"></path>
  </g>
  <g>
    <path style="opacity:1" fill="#56bfea" d="M 197.5,314.5 C 199.701,326.068 205.368,335.568 214.5,343C 226.827,352.329 240.16,359.829 254.5,365.5C 240.836,366.871 227.836,370.705 215.5,377C 206.566,382.6 199.732,390.1 195,399.5C 186.361,380.135 182.528,359.801 183.5,338.5C 184.274,328.127 188.941,320.127 197.5,314.5 Z"></path>
  </g>
  <g>
    <path style="opacity:1" fill="#56bfe9" d="M 313.5,314.5 C 322.27,320.426 326.937,328.759 327.5,339.5C 328.477,360.402 324.811,380.402 316.5,399.5C 307.613,384.374 294.613,374.54 277.5,370C 270.892,368.046 264.225,366.546 257.5,365.5C 270.819,359.669 283.486,352.502 295.5,344C 305.207,336.419 311.207,326.586 313.5,314.5 Z"></path>
  </g>
  <g>
    <path style="opacity:1" fill="#85dafe" d="M 183.5,338.5 C 182.528,359.801 186.361,380.135 195,399.5C 199.732,390.1 206.566,382.6 215.5,377C 227.836,370.705 240.836,366.871 254.5,365.5C 255.5,365.5 256.5,365.5 257.5,365.5C 264.225,366.546 270.892,368.046 277.5,370C 294.613,374.54 307.613,384.374 316.5,399.5C 324.811,380.402 328.477,360.402 327.5,339.5C 338.4,341.778 349.067,344.945 359.5,349C 397.65,362.71 429.316,385.21 454.5,416.5C 414.702,465.886 363.369,496.22 300.5,507.5C 296.267,507.539 292.267,508.205 288.5,509.5C 284.727,510.103 281.061,510.77 277.5,511.5C 262.833,511.5 248.167,511.5 233.5,511.5C 193.091,507.53 155.424,495.03 120.5,474C 111.228,468.209 102.562,461.709 94.5,454.5C 94.0269,453.094 93.0269,452.427 91.5,452.5C 78.4419,441.776 66.7752,429.776 56.5,416.5C 60.7597,411.064 65.2597,405.731 70,400.5C 102.157,369.831 139.991,349.164 183.5,338.5 Z"></path>
  </g>
  <g>
    <path style="opacity:0.918" fill="#cdacab" d="M 91.5,452.5 C 93.0269,452.427 94.0269,453.094 94.5,454.5C 92.9731,454.573 91.9731,453.906 91.5,452.5 Z"></path>
  </g>
  <g>
    <path style="opacity:0.561" fill="#c2b2b6" d="M 300.5,507.5 C 296.764,508.989 292.764,509.656 288.5,509.5C 292.267,508.205 296.267,507.539 300.5,507.5 Z"></path>
  </g>
</svg>
